<?xml version="1.0" encoding="UTF-8" standalone="no"?>
<!-- Created with Inkscape (http://www.inkscape.org/) -->

<svg
   xmlns:dc="http://purl.org/dc/elements/1.1/"
   xmlns:cc="http://creativecommons.org/ns#"
   xmlns:rdf="http://www.w3.org/1999/02/22-rdf-syntax-ns#"
   xmlns:svg="http://www.w3.org/2000/svg"
   xmlns="http://www.w3.org/2000/svg"
   xmlns:sodipodi="http://sodipodi.sourceforge.net/DTD/sodipodi-0.dtd"
   xmlns:inkscape="http://www.inkscape.org/namespaces/inkscape"
   width="82.614075mm"
   height="42.860012mm"
   viewBox="0 0 82.614075 42.860012"
   version="1.1"
   id="svg8"
   inkscape:version="0.92.3 (2405546, 2018-03-11)"
   sodipodi:docname="topology_example.svg">
  <defs
     id="defs2" />
  <sodipodi:namedview
     id="base"
     pagecolor="#ffffff"
     bordercolor="#666666"
     borderopacity="1.0"
     inkscape:pageopacity="0.0"
     inkscape:pageshadow="2"
     inkscape:zoom="1.6608723"
     inkscape:cx="204.08257"
     inkscape:cy="65.407081"
     inkscape:document-units="mm"
     inkscape:current-layer="layer1"
     showgrid="false"
     inkscape:window-width="1916"
     inkscape:window-height="1033"
     inkscape:window-x="0"
     inkscape:window-y="22"
     inkscape:window-maximized="0" />
  <metadata
     id="metadata5">
    <rdf:RDF>
      <cc:Work
         rdf:about="">
        <dc:format>image/svg+xml</dc:format>
        <dc:type
           rdf:resource="http://purl.org/dc/dcmitype/StillImage" />
        <dc:title></dc:title>
      </cc:Work>
    </rdf:RDF>
  </metadata>
  <g
     inkscape:label="Layer 1"
     inkscape:groupmode="layer"
     id="layer1"
     transform="translate(-11.790163,-182.04752)">
    <path
       style="fill:#000000;stroke-width:0.15340143"
       d="m 81.227093,224.77537 c -0.12656,-0.07 -0.6788,-0.21042 -1.2272,-0.31205 -0.54842,-0.10163 -1.37678,-0.28948 -1.84082,-0.41743 -0.46404,-0.12795 -1.29241,-0.35668 -1.84083,-0.50829 -1.70286,-0.47076 -4.43954,-1.05766 -6.48802,-1.39141 -1.53389,-0.24991 -2.74043,-0.32542 -5.52246,-0.34562 -3.5388,-0.0257 -4.10459,0.0125 -9.389,0.63494 -1.51868,0.17883 -3.52058,0.41232 -4.44864,0.51877 -0.97477,0.11177 -3.53384,0.19357 -6.05936,0.19357 -4.86141,0 -4.86794,-9.2e-4 -8.36039,-1.18551 -1.91945,-0.65105 -2.75958,-1.11449 -4.28556,-2.36399 -1.24595,-1.02024 -1.86489,-1.94084 -2.31431,-3.44234 -0.53182,-1.77678 -0.50181,-2.51479 0.15553,-3.81998 0.53237,-1.0572 1.70653,-2.54136 2.25318,-2.84812 0.15743,-0.0883 0.61258,-0.4724 1.01149,-0.85347 0.86726,-0.8285 1.38188,-1.14296 3.10298,-1.89609 0.71716,-0.31381 2.1668,-0.96902 3.22144,-1.456 1.05462,-0.48697 2.05558,-0.94224 2.22431,-1.0117 0.282,-0.11603 0.27472,-0.13079 -0.0901,-0.18156 -0.2183,-0.0303 -1.11464,0.18517 -1.99189,0.47898 -0.87721,0.29384 -1.62376,0.50544 -1.659,0.47018 -0.0351,-0.0352 0.33354,-0.24606 0.81946,-0.46853 1.19636,-0.54772 3.26853,-0.98056 4.69432,-0.98054 1.59833,-1e-5 4.25525,0.81449 6.53452,2.00317 0.94106,0.49079 2.32166,1.0724 3.06802,1.29247 0.74635,0.22009 1.73669,0.51266 2.20073,0.65019 1.12915,0.33464 2.71541,0.45997 8.36037,0.6605 5.19412,0.18453 9.45709,0.0436 12.96241,-0.42863 1.44292,-0.19441 3.09456,-0.25927 6.67297,-0.26214 l 4.75543,-0.004 1.38062,0.43151 c 2.11389,0.66067 3.44022,1.66302 4.41507,3.33651 0.59114,1.01474 0.91821,3.03999 0.85387,5.28709 -0.0522,1.82479 -0.0654,1.88513 -0.66688,3.05681 -1.11303,2.16807 -3.27109,3.83892 -6.18097,4.78552 -1.50377,0.48912 -1.68635,0.51342 -3.83505,0.50895 -1.24086,-0.003 -2.35964,-0.0619 -2.4862,-0.13192 z m 6.13184,-0.66182 c 2.82529,-0.92712 4.92724,-2.59269 5.96175,-4.72404 0.5241,-1.07979 0.56194,-1.25803 0.61587,-2.89953 0.10693,-3.25522 -0.36714,-4.83746 -1.95081,-6.51092 -1.00142,-1.05818 -2.07442,-1.60872 -3.93228,-2.01757 -1.07558,-0.2367 -1.78634,-0.25935 -5.75254,-0.1833 -2.7964,0.0536 -5.08213,0.17343 -5.98268,0.3136 -2.79366,0.43482 -7.81847,0.59405 -13.11581,0.41555 -5.64669,-0.19027 -7.1301,-0.32409 -8.69344,-0.7843 -2.96691,-0.87336 -3.68963,-1.14367 -5.14782,-1.92536 -2.67619,-1.43459 -6.27455,-2.36309 -6.53436,-1.68607 -0.0455,0.1186 -0.31175,0.26431 -0.59166,0.3238 -0.2799,0.0595 -1.3373,0.50621 -2.34972,0.99278 -1.01246,0.48654 -2.609,1.20996 -3.54788,1.60762 -0.93889,0.3976 -2.021,0.97561 -2.40473,1.28435 -3.08186,2.47963 -3.118,2.51721 -3.92848,4.08536 -0.59673,1.15457 -0.6275,2.18454 -0.11043,3.69735 0.53982,1.5793 0.84898,2.03643 2.11918,3.13324 1.63585,1.41257 3.23176,2.17965 6.56841,3.15714 1.37338,0.40235 1.66935,0.43079 5.13895,0.49425 3.79265,0.0694 4.78405,0.002 11.0449,-0.74966 5.457,-0.65521 8.35486,-0.83065 10.39702,-0.62949 1.03131,0.10161 2.25477,0.18578 2.7188,0.18707 0.99233,0.003 4.96733,0.62987 6.1541,0.9709 2.62196,0.75344 3.55702,1.00246 4.66072,1.24113 0.67495,0.14598 1.71041,0.3954 2.30101,0.55429 1.65016,0.44394 4.40797,0.293 6.36193,-0.34819 z m -10.27367,-4.98435 c -0.12655,-0.0455 -0.55886,-0.28938 -0.96065,-0.542 -0.61143,-0.38441 -0.76936,-0.42712 -0.9684,-0.26192 -0.2071,0.17189 -0.2251,0.14651 -0.13908,-0.19615 0.0543,-0.21647 0.0286,-0.43693 -0.0571,-0.48994 -0.2763,-0.17075 -0.94287,-1.79975 -0.93908,-2.29502 0.003,-0.42991 0.0408,-0.38971 0.35951,0.38513 0.63548,1.54482 0.90598,1.90087 1.41223,1.85856 3.00413,-0.25106 3.32635,-0.19763 3.71664,0.61634 l 0.19968,0.41643 0.63952,-0.32631 c 0.88912,-0.45358 2.25923,-1.66779 2.25924,-2.00215 -10e-6,-0.31908 0.23719,-0.37339 0.34976,-0.0801 0.24344,0.63438 -0.85531,1.70757 -2.54981,2.49048 -0.95123,0.43943 -1.32538,0.53135 -2.12348,0.52136 -0.53285,-0.007 -1.07236,-0.0493 -1.19891,-0.0948 z m 2.08083,-0.36893 c 0.0576,-0.0932 -0.066,-0.33991 -0.27441,-0.54843 -0.32502,-0.32501 -0.53439,-0.38289 -1.4684,-0.4059 -1.38805,-0.0342 -1.62805,0.16698 -0.8425,0.70624 0.46641,0.32019 0.76881,0.40083 1.53093,0.40822 0.53724,0.005 0.99516,-0.0643 1.05437,-0.16012 z m -37.31189,-3.08643 c -1.43373,-0.95608 -2.65903,-2.13442 -2.65903,-2.55713 -10e-6,-0.52123 0.23418,-0.48183 0.54285,0.0913 0.25968,0.48219 1.70966,1.73313 2.00889,1.73313 0.0607,-5e-5 0.28803,-0.21115 0.50511,-0.46923 0.44885,-0.53364 1.16439,-0.74877 2.50888,-0.75433 0.89117,-0.004 1.91102,0.30817 2.13961,0.65425 0.12051,0.18243 0.27717,0.0398 1.29537,-1.17904 0.18347,-0.21959 0.40781,-0.39928 0.49855,-0.39928 0.6802,0 -1.17779,2.29691 -2.65597,3.28343 -0.51451,0.34339 -0.76089,0.39822 -1.78961,0.39822 -1.18274,0 -1.20324,-0.007 -2.39466,-0.80136 z m 3.8305,0.0377 c 0.39617,-0.25125 0.72033,-0.56541 0.72034,-0.69813 -10e-6,-0.31278 -0.76874,-0.6213 -1.88252,-0.75549 -1.18134,-0.14234 -1.72845,-3.1e-4 -2.12075,0.55065 -0.31634,0.44426 -0.31752,0.46419 -0.0404,0.68651 1.00667,0.80779 2.26201,0.88954 3.32336,0.21646 z m 11.073105,-17.36758 c -0.295289,-0.0288 -0.916571,-0.11959 -1.380611,-0.20165 -0.46404,-0.0821 -2.017102,-0.22148 -3.451254,-0.30981 -1.471978,-0.0907 -3.152798,-0.29009 -3.859577,-0.45794 -2.197005,-0.5218 -4.22426,-1.83147 -4.753462,-3.07091 -0.258935,-0.60645 -0.181371,-1.77292 0.192679,-2.89756 0.51436,-1.5465 2.978599,-4.22322 5.428752,-5.89685 1.779686,-1.21564 4.370375,-2.48286 5.675854,-2.77631 0.632788,-0.14224 1.461154,-0.33004 1.840819,-0.41739 1.766689,-0.40646 6.272095,-0.33497 6.851615,0.10867 0.252632,0.1934 0.226404,0.20399 -0.255237,0.10349 -0.913649,-0.19117 -5.372778,-0.12835 -6.36616,0.0897 -2.440902,0.53574 -3.485169,0.87725 -4.773579,1.56109 -4.296956,2.28061 -7.62074,5.56391 -8.140017,8.04085 -0.341337,1.6282 -0.294632,1.85191 0.57965,2.77633 1.552987,1.64206 3.701348,2.35798 7.424975,2.47427 1.265634,0.0395 2.922426,0.18436 3.681762,0.32183 1.8593,0.33659 5.037071,0.33982 6.44286,0.007 0.590607,-0.13999 1.764126,-0.33462 2.607818,-0.43262 2.372669,-0.27535 3.424075,-0.64752 5.752562,-2.0364 1.613097,-0.96218 3.162165,-2.126 3.721764,-2.79621 0.656353,-0.78609 1.183888,-2.05075 1.185579,-2.84219 0.0034,-1.60882 -1.004369,-3.25606 -2.415726,-3.94844 -0.4845,-0.2377 -1.087995,-0.54832 -1.34111,-0.69031 -0.382053,-0.21431 -2.670889,-1.28339 -3.835036,-1.79127 -0.828173,-0.36131 -1.579216,-0.4892 -2.581866,-0.43965 -1.242651,0.0614 -1.518744,-0.13863 -0.648516,-0.46986 0.947334,-0.36055 2.81495,0.0874 5.454704,1.30838 0.80152,0.37072 1.664408,0.7888 1.91752,0.92904 0.253113,0.14024 0.820858,0.45489 1.261661,0.69925 0.90925,0.50402 1.727317,1.38746 2.212087,2.38886 0.261929,0.54108 0.325695,0.93433 0.307417,1.89594 -0.01269,0.6673 -0.118935,1.43528 -0.236116,1.70663 -0.582508,1.3489 -1.977786,2.66905 -4.250437,4.02163 -0.540118,0.32146 -1.169074,0.71182 -1.39768,0.86747 -0.228599,0.15567 -0.470759,0.28301 -0.538122,0.28301 -0.06736,0 -0.432647,0.16067 -0.811558,0.35754 -0.867152,0.44987 -2.725564,0.82599 -7.36205,1.48999 -0.839721,0.12024 -3.118583,0.14512 -4.14184,0.0452 z m -29.183103,-5.06258 -0.362149,-0.3017 1.677335,-0.005 c 1.91776,-0.006 2.836,-0.31408 3.235182,-1.08599 0.538286,-1.04092 -0.896577,-2.3298 -3.220841,-2.89313 -0.419515,-0.10167 -0.791761,-0.21386 -0.827216,-0.24932 -0.147848,-0.14787 0.357938,-0.53375 1.0268,-0.78342 0.393934,-0.14765 0.85463,-0.35107 1.023368,-0.45324 0.433097,-0.26224 1.241186,-0.40982 1.607267,-0.29366 0.489775,0.15545 0.362007,0.30722 -0.265491,0.31535 -0.316133,0.004 -0.96742,0.19394 -1.447326,0.42186 -0.479925,0.22789 -0.945869,0.41439 -1.035449,0.41444 -0.0896,6e-5 -0.162898,0.10356 -0.162901,0.2301 5e-6,0.13997 0.142761,0.23011 0.364418,0.23011 0.588362,-1e-5 1.960515,0.70412 2.680059,1.37529 1.222974,1.14076 0.978738,2.38384 -0.601964,3.06384 -1.032441,0.4441 -3.165358,0.45258 -3.691083,0.0146 z m -13.036728,23.00943 c 0.44006,-1.71372 0.99067,-6.67142 0.76592,-6.89618 -0.0444,-0.0444 -0.90024,-0.0808 -1.90185,-0.0808 -1.02083,-1e-5 -1.7228,-0.055 -1.5974,-0.12519 0.39944,-0.2235 3.32681,-0.29505 4.82184,-0.1178 0.80153,0.095 2.03554,0.23461 2.74222,0.31018 0.7067,0.0756 1.34908,0.20158 1.42752,0.28002 0.21765,0.21763 -1.36584,0.34095 -2.25223,0.17539 -0.73456,-0.13721 -1.46029,-0.24403 -2.45441,-0.36127 l -0.46021,-0.0543 -0.0291,2.39948 c -0.032,2.63845 -0.28602,4.02057 -0.8349,4.54347 l -0.32582,0.31042 z m 22.300465,-25.4964 c -0.301924,-0.13044 -0.22449,-0.28549 0.153403,-0.30718 0.718945,-0.0413 2.092408,-0.35057 2.394495,-0.53922 0.334045,-0.20864 0.580759,-0.1085 0.410713,0.16641 -0.274943,0.44487 -2.381926,0.9291 -2.958611,0.67999 z m 24.807237,1.19585 c -0.213532,-0.3216 -0.236602,-0.3236 -0.948037,-0.0821 -1.529126,0.51911 -5.154293,0.22906 -6.9445,-0.55569 -0.762509,-0.33425 -1.75083,-1.06753 -1.75083,-1.29901 2e-6,-0.18242 0.04218,-0.17849 0.243378,0.0227 1.071728,1.07174 3.438253,1.93046 3.438253,1.24762 -2e-6,-0.12008 0.172954,-0.42387 0.38434,-0.67509 0.30676,-0.36456 0.620026,-0.5092 1.551949,-0.71654 0.642187,-0.14289 1.31483,-0.22372 1.494827,-0.1793 1.205346,0.29647 1.51427,0.41904 2.138327,0.8484 0.384225,0.26435 0.797324,0.48064 0.917996,0.48064 0.320094,1e-5 1.347346,-0.70934 1.831406,-1.26463 0.230272,-0.26415 0.467253,-0.4317 0.526631,-0.37232 0.19431,0.19431 -0.493114,0.9364 -1.341312,1.44797 -0.592722,0.3575 -0.853211,0.61794 -0.907905,0.90776 -0.0994,0.52672 -0.359131,0.6043 -0.634525,0.18956 z m -0.865323,-0.38908 0.479116,-0.24781 -0.371699,-0.28737 c -0.729633,-0.56411 -1.984772,-0.93224 -2.820113,-0.82714 -1.179617,0.1484 -1.720335,0.36072 -1.997938,0.78434 -0.463519,0.70741 -0.152442,0.82568 2.171721,0.82569 1.596134,-1e-5 2.167601,-0.0558 2.538885,-0.24778 z m -24.56822,-2.21586 c -0.140648,-0.0958 0.04214,-0.17201 0.585768,-0.24407 0.434606,-0.0576 1.192009,-0.31545 1.6831,-0.5729 1.342711,-0.70384 1.71599,-0.49589 0.404876,0.22554 -1.072547,0.59015 -2.282692,0.85787 -2.673736,0.59145 z M 22.00118,213.98951 c 0.31082,-0.20083 2.04166,-0.20088 1.91752,0 -0.0521,0.0844 -0.55669,0.15238 -1.12122,0.15109 -0.71931,-0.002 -0.85703,0.0311 -0.79631,-0.15106 z m 0.2304,-1.21499 c -0.26754,-0.10441 -0.24801,-0.12809 0.15341,-0.18612 0.66444,-0.0961 1.9172,0.0277 1.91719,0.18935 2e-5,0.16708 -1.64077,0.16453 -2.0706,-0.003 z"
       id="path851"
       inkscape:connector-curvature="0"
       sodipodi:nodetypes="csscscccscccccccccccscsccccccccccccccccssscccscscccccsccccccccccccccccccccccscsccccccscccccsccccscscccccccccccccscsccccccscccccscccccccccccccccscccccccccccccccsssccccccscccssccscccccccccccscscsccscccccccccccsccccscccccccscccccc" />
  </g>
</svg>
